<?xml version="1.0" encoding="UTF-8"?>
<!DOCTYPE svg PUBLIC "-//W3C//DTD SVG 1.1//EN" "http://www.w3.org/Graphics/SVG/1.1/DTD/svg11.dtd">
<svg xmlns="http://www.w3.org/2000/svg" version="1.1" width="880px" height="207px" style="shape-rendering:geometricPrecision; text-rendering:geometricPrecision; image-rendering:optimizeQuality; fill-rule:evenodd; clip-rule:evenodd" xmlns:xlink="http://www.w3.org/1999/xlink">
<g><path style="opacity:1" fill="#fefdfd" d="M -0.5,-0.5 C 292.833,-0.5 586.167,-0.5 879.5,-0.5C 879.5,68.5 879.5,137.5 879.5,206.5C 586.167,206.5 292.833,206.5 -0.5,206.5C -0.5,137.5 -0.5,68.5 -0.5,-0.5 Z"/></g>
<g><path style="opacity:1" fill="#fe0201" d="M 74.5,14.5 C 105.969,12.0332 132.135,22.3665 153,45.5C 171.385,71.5546 173.385,98.888 159,127.5C 138.375,157.284 109.875,170.117 73.5,166C 43.39,161.216 21.89,145.05 9,117.5C -3.26223,73.1956 11.2378,41.0289 52.5,21C 59.8072,18.2817 67.1405,16.115 74.5,14.5 Z"/></g>
<g><path style="opacity:1" fill="#810000" d="M 59.5,41.5 C 54.1667,41.5 48.8333,41.5 43.5,41.5C 43.5,70.1667 43.5,98.8333 43.5,127.5C 42.502,98.6715 42.1686,69.6715 42.5,40.5C 48.358,40.1778 54.0247,40.5111 59.5,41.5 Z"/></g>
<g><path style="opacity:1" fill="#0c0100" d="M 43.5,127.5 C 43.5,98.8333 43.5,70.1667 43.5,41.5C 48.8333,41.5 54.1667,41.5 59.5,41.5C 68.0422,64.9223 76.8756,88.2556 86,111.5C 95.4254,88.3085 104.592,64.9751 113.5,41.5C 118.792,40.5052 124.125,40.1718 129.5,40.5C 129.5,69.5 129.5,98.5 129.5,127.5C 125.833,127.5 122.167,127.5 118.5,127.5C 118.402,102.141 118.568,76.8078 119,51.5C 109.202,76.7553 99.702,102.089 90.5,127.5C 87.2234,127.784 84.0567,127.451 81,126.5C 71.6667,101.833 62.3333,77.1667 53,52.5C 53.4414,77.4705 53.6081,102.471 53.5,127.5C 50.1667,127.5 46.8333,127.5 43.5,127.5 Z"/></g>
<g><path style="opacity:1" fill="#050505" d="M 213.5,55.5 C 248.565,53.7403 263.732,70.407 259,105.5C 255.554,126.914 242.888,137.248 221,136.5C 205.405,136.225 194.738,128.892 189,114.5C 185.751,101.798 185.751,89.131 189,76.5C 193.717,65.2705 201.883,58.2705 213.5,55.5 Z"/></g>
<g><path style="opacity:1" fill="#8a8a8a" d="M 526.5,56.5 C 520.974,56.1786 515.64,56.5119 510.5,57.5C 509.957,57.44 509.624,57.1067 509.5,56.5C 515.32,55.1843 520.987,55.1843 526.5,56.5 Z"/></g>
<g><path style="opacity:1" fill="#8d8d8d" d="M 565.5,56.5 C 571.013,55.1843 576.68,55.1843 582.5,56.5C 582.376,57.1067 582.043,57.44 581.5,57.5C 576.36,56.5119 571.026,56.1786 565.5,56.5 Z"/></g>
<g><path style="opacity:1" fill="#060606" d="M 828.5,55.5 C 836.893,55.1696 845.227,55.6696 853.5,57C 858.592,58.2001 862.592,60.8668 865.5,65C 863.392,68.9395 860.725,72.4395 857.5,75.5C 850.327,69.1693 841.994,67.0026 832.5,69C 826.767,71.2477 824.933,75.4144 827,81.5C 827.833,82.3333 828.667,83.1667 829.5,84C 838.891,86.4544 848.224,89.121 857.5,92C 868.443,99.5337 871.61,109.7 867,122.5C 863.911,129.256 858.745,133.423 851.5,135C 838.8,138.142 826.8,136.476 815.5,130C 812.983,127.651 810.65,125.151 808.5,122.5C 811.152,118.518 814.152,114.851 817.5,111.5C 821.46,115.962 826.126,119.462 831.5,122C 836.5,122.667 841.5,122.667 846.5,122C 849.057,121.315 850.891,119.815 852,117.5C 853.494,112.474 852.327,108.308 848.5,105C 841.293,102.576 833.96,100.576 826.5,99C 811.279,92.0061 807.112,80.8395 814,65.5C 817.977,60.7741 822.811,57.4408 828.5,55.5 Z"/></g>
<g><path style="opacity:1" fill="#010101" d="M 465.5,87.5 C 475.987,88.4944 486.654,88.8278 497.5,88.5C 497.5,92.5 497.5,96.5 497.5,100.5C 486.833,100.5 476.167,100.5 465.5,100.5C 465.5,107.833 465.5,115.167 465.5,122.5C 478.167,122.5 490.833,122.5 503.5,122.5C 503.5,126.833 503.5,131.167 503.5,135.5C 485.833,135.5 468.167,135.5 450.5,135.5C 450.5,109.167 450.5,82.8333 450.5,56.5C 467.833,56.5 485.167,56.5 502.5,56.5C 502.5,60.8333 502.5,65.1667 502.5,69.5C 490.167,69.5 477.833,69.5 465.5,69.5C 465.5,75.5 465.5,81.5 465.5,87.5 Z"/></g>
<g><path style="opacity:1" fill="#050505" d="M 526.5,56.5 C 532.762,76.2855 539.429,95.9522 546.5,115.5C 553.037,95.8883 559.371,76.2216 565.5,56.5C 571.026,56.1786 576.36,56.5119 581.5,57.5C 572.909,82.773 564.409,108.106 556,133.5C 552.936,134.783 549.603,135.45 546,135.5C 542.397,135.45 539.064,134.783 536,133.5C 527.591,108.106 519.091,82.773 510.5,57.5C 515.64,56.5119 520.974,56.1786 526.5,56.5 Z"/></g>
<g><path style="opacity:1" fill="#010101" d="M 609.5,87.5 C 619.987,88.4944 630.654,88.8278 641.5,88.5C 641.5,92.5 641.5,96.5 641.5,100.5C 630.833,100.5 620.167,100.5 609.5,100.5C 609.5,107.833 609.5,115.167 609.5,122.5C 622.167,122.5 634.833,122.5 647.5,122.5C 647.5,126.833 647.5,131.167 647.5,135.5C 629.833,135.5 612.167,135.5 594.5,135.5C 594.5,109.167 594.5,82.8333 594.5,56.5C 611.833,56.5 629.167,56.5 646.5,56.5C 646.5,60.8333 646.5,65.1667 646.5,69.5C 634.167,69.5 621.833,69.5 609.5,69.5C 609.5,75.5 609.5,81.5 609.5,87.5 Z"/></g>
<g><path style="opacity:1" fill="#020202" d="M 662.5,56.5 C 668.509,56.3338 674.509,56.5005 680.5,57C 691.364,73.6997 702.031,90.5331 712.5,107.5C 713.499,90.5131 713.833,73.5131 713.5,56.5C 718.5,56.5 723.5,56.5 728.5,56.5C 728.5,82.8333 728.5,109.167 728.5,135.5C 722.907,135.807 717.407,135.473 712,134.5C 701.084,116.332 689.917,98.3323 678.5,80.5C 677.5,98.8212 677.167,117.155 677.5,135.5C 672.5,135.5 667.5,135.5 662.5,135.5C 662.5,109.167 662.5,82.8333 662.5,56.5 Z"/></g>
<g><path style="opacity:1" fill="#010101" d="M 802.5,56.5 C 802.5,60.5 802.5,64.5 802.5,68.5C 794.981,68.175 787.648,68.5084 780.5,69.5C 779.503,91.327 779.169,113.327 779.5,135.5C 774.5,135.5 769.5,135.5 764.5,135.5C 764.5,113.5 764.5,91.5 764.5,69.5C 756.833,69.5 749.167,69.5 741.5,69.5C 741.5,65.1667 741.5,60.8333 741.5,56.5C 761.833,56.5 782.167,56.5 802.5,56.5 Z"/></g>
<g><path style="opacity:1" fill="#fcfcfc" d="M 216.5,68.5 C 230.064,66.3532 238.898,71.6865 243,84.5C 244.104,93.9893 243.438,103.323 241,112.5C 238.993,117.838 235.159,121.004 229.5,122C 215.597,125.142 206.764,119.975 203,106.5C 201.855,96.9955 202.522,87.6621 205,78.5C 207.818,73.8388 211.651,70.5055 216.5,68.5 Z"/></g>
<g><path style="opacity:1" fill="#575757" d="M 802.5,56.5 C 803.485,60.6344 803.818,64.9677 803.5,69.5C 795.833,69.5 788.167,69.5 780.5,69.5C 787.648,68.5084 794.981,68.175 802.5,68.5C 802.5,64.5 802.5,60.5 802.5,56.5 Z"/></g>
<g><path style="opacity:1" fill="#040404" d="M 301.5,74.5 C 311.882,72.3636 319.882,75.6969 325.5,84.5C 333.899,73.7598 344.233,71.5932 356.5,78C 359.164,80.6692 360.998,83.8359 362,87.5C 362.5,103.497 362.667,119.497 362.5,135.5C 357.5,135.5 352.5,135.5 347.5,135.5C 347.667,121.163 347.5,106.829 347,92.5C 345.522,88.5204 342.688,86.8538 338.5,87.5C 332.632,87.1966 328.798,89.8633 327,95.5C 326.5,108.829 326.333,122.163 326.5,135.5C 321.5,135.5 316.5,135.5 311.5,135.5C 311.667,121.163 311.5,106.829 311,92.5C 309.522,88.5204 306.688,86.8538 302.5,87.5C 296.632,87.1966 292.798,89.8633 291,95.5C 290.5,108.829 290.333,122.163 290.5,135.5C 285.5,135.5 280.5,135.5 275.5,135.5C 275.5,115.5 275.5,95.5 275.5,75.5C 280.167,75.5 284.833,75.5 289.5,75.5C 289.187,78.2469 289.52,80.9135 290.5,83.5C 292.04,81.6132 293.707,79.7799 295.5,78C 297.727,77.059 299.727,75.8923 301.5,74.5 Z"/></g>
<g><path style="opacity:1" fill="#060606" d="M 398.5,74.5 C 426.954,74.4607 438.454,88.4607 433,116.5C 426.427,133.042 414.26,139.542 396.5,136C 386.226,132.727 379.726,125.894 377,115.5C 372.803,100.09 376.97,87.5901 389.5,78C 392.662,76.9725 395.662,75.8059 398.5,74.5 Z"/></g>
<g><path style="opacity:1" fill="#fbfbfb" d="M 399.5,87.5 C 415.389,86.9038 421.889,94.5705 419,110.5C 416.935,121.563 410.435,125.73 399.5,123C 396.667,121.5 394.5,119.333 393,116.5C 390.679,108.327 391.012,100.327 394,92.5C 395.73,90.5981 397.563,88.9314 399.5,87.5 Z"/></g>
<g><path style="opacity:1" fill="#4e4e4e" d="M 465.5,87.5 C 476.5,87.5 487.5,87.5 498.5,87.5C 498.5,91.8333 498.5,96.1667 498.5,100.5C 498.167,100.5 497.833,100.5 497.5,100.5C 497.5,96.5 497.5,92.5 497.5,88.5C 486.654,88.8278 475.987,88.4944 465.5,87.5 Z"/></g>
<g><path style="opacity:1" fill="#4e4e4e" d="M 609.5,87.5 C 620.5,87.5 631.5,87.5 642.5,87.5C 642.5,91.8333 642.5,96.1667 642.5,100.5C 642.167,100.5 641.833,100.5 641.5,100.5C 641.5,96.5 641.5,92.5 641.5,88.5C 630.654,88.8278 619.987,88.4944 609.5,87.5 Z"/></g>
<g><path style="opacity:1" fill="#d3d3d3" d="M 497.5,100.5 C 497.833,100.5 498.167,100.5 498.5,100.5C 488.013,101.494 477.346,101.828 466.5,101.5C 466.5,108.167 466.5,114.833 466.5,121.5C 479.011,121.171 491.345,121.505 503.5,122.5C 490.833,122.5 478.167,122.5 465.5,122.5C 465.5,115.167 465.5,107.833 465.5,100.5C 476.167,100.5 486.833,100.5 497.5,100.5 Z"/></g>
<g><path style="opacity:1" fill="#d3d3d3" d="M 641.5,100.5 C 641.833,100.5 642.167,100.5 642.5,100.5C 632.013,101.494 621.346,101.828 610.5,101.5C 610.5,108.167 610.5,114.833 610.5,121.5C 623.011,121.171 635.345,121.505 647.5,122.5C 634.833,122.5 622.167,122.5 609.5,122.5C 609.5,115.167 609.5,107.833 609.5,100.5C 620.167,100.5 630.833,100.5 641.5,100.5 Z"/></g>
</svg>
